<svg width="253" height="61" viewBox="0 0 253 61" fill="none" xmlns="http://www.w3.org/2000/svg">
<path d="M40.2347 22.5313L49.0859 31.3826C53.9744 36.2711 53.9737 44.1973 49.0852 49.0858C44.1967 53.9741 36.2712 53.9742 31.3827 49.0858L22.5314 40.2345L40.2347 22.5313ZM11.2654 11.2659C16.1539 6.37744 24.08 6.37689 28.9686 11.2652L37.8205 20.1172L20.1173 37.8204L11.2654 28.9685C6.3771 24.08 6.3771 16.1544 11.2654 11.2659Z" stroke="#4C6663" stroke-width="3.41398"/>
<path d="M22.1792 39.0776L39.1278 22.129L51.4495 35.7583L51.5501 43.7046L45.9676 51.7011L39.7313 52.0028L31.0307 49.8403L28.2646 46.0683L22.1792 39.0776Z" fill="#4C6663" stroke="#4C6663" stroke-width="2.27598"/>
<path d="M13.3767 23.1838L13.3072 23.0405C12.1305 20.6143 12.9601 17.6914 15.2359 16.245" stroke="#4C6663" stroke-width="2.27598"/>
<mask id="path-4-outside-1_393_864" maskUnits="userSpaceOnUse" x="73.3516" y="12.6758" width="178" height="32" fill="black">
<rect fill="white" x="73.3516" y="12.6758" width="178" height="32"/>
<path d="M73.5738 43.6758V16.5006H79.8629V38.5513H93.4893V43.6758H73.5738ZM107.216 43.9864C104.835 43.9864 102.739 43.5205 100.927 42.5888C99.1412 41.6571 97.7565 40.3889 96.7731 38.7842C95.7896 37.1537 95.2978 35.3032 95.2978 33.2327C95.2978 31.1364 95.7766 29.2859 96.7342 27.6812C97.7177 26.0507 99.0506 24.7826 100.733 23.8767C102.415 22.945 104.317 22.4791 106.44 22.4791C108.484 22.4791 110.322 22.9191 111.952 23.7991C113.609 24.6531 114.916 25.8954 115.873 27.526C116.831 29.1306 117.31 31.0587 117.31 33.3104C117.31 33.5433 117.297 33.8151 117.271 34.1256C117.245 34.4103 117.219 34.6821 117.193 34.9409H100.228V31.4081H114.01L111.681 32.4563C111.681 31.3693 111.461 30.4246 111.021 29.6223C110.581 28.82 109.972 28.1989 109.196 27.7589C108.42 27.293 107.514 27.0601 106.478 27.0601C105.443 27.0601 104.524 27.293 103.722 27.7589C102.946 28.1989 102.338 28.833 101.898 29.6611C101.458 30.4635 101.238 31.4211 101.238 32.534V33.4657C101.238 34.6044 101.483 35.6138 101.975 36.4938C102.493 37.3478 103.205 38.0078 104.11 38.4737C105.042 38.9137 106.129 39.1336 107.371 39.1336C108.484 39.1336 109.455 38.9654 110.283 38.629C111.137 38.2925 111.914 37.7878 112.612 37.1149L115.835 40.6089C114.877 41.6959 113.673 42.537 112.224 43.1323C110.775 43.7017 109.105 43.9864 107.216 43.9864ZM148.478 22.4791C150.134 22.4791 151.597 22.8156 152.865 23.4885C154.159 24.1355 155.168 25.1449 155.893 26.5166C156.644 27.8624 157.019 29.5964 157.019 31.7187V43.6758H150.963V32.6504C150.963 30.9681 150.613 29.7259 149.915 28.9235C149.216 28.1212 148.232 27.7201 146.964 27.7201C146.084 27.7201 145.295 27.9271 144.596 28.3412C143.897 28.7294 143.354 29.3247 142.965 30.127C142.577 30.9293 142.383 31.9516 142.383 33.1939V43.6758H136.327V32.6504C136.327 30.9681 135.978 29.7259 135.279 28.9235C134.606 28.1212 133.635 27.7201 132.367 27.7201C131.487 27.7201 130.698 27.9271 129.999 28.3412C129.3 28.7294 128.757 29.3247 128.368 30.127C127.98 30.9293 127.786 31.9516 127.786 33.1939V43.6758H121.73V22.7897H127.514V28.4965L126.427 26.8272C127.152 25.4037 128.174 24.3296 129.494 23.605C130.84 22.8544 132.367 22.4791 134.075 22.4791C135.99 22.4791 137.66 22.9709 139.083 23.9544C140.533 24.912 141.49 26.3872 141.956 28.38L139.821 27.7977C140.52 26.1672 141.633 24.8731 143.16 23.9155C144.712 22.9579 146.485 22.4791 148.478 22.4791ZM175.181 43.9864C173.343 43.9864 171.764 43.5981 170.445 42.8217C169.125 42.0453 168.115 40.8677 167.416 39.2889C166.718 37.6843 166.368 35.6656 166.368 33.2327C166.368 30.774 166.731 28.7553 167.455 27.1766C168.206 25.5978 169.241 24.4202 170.561 23.6438C171.881 22.8674 173.421 22.4791 175.181 22.4791C177.148 22.4791 178.908 22.9191 180.461 23.7991C182.039 24.679 183.282 25.9213 184.187 27.526C185.119 29.1306 185.585 31.0328 185.585 33.2327C185.585 35.4068 185.119 37.2961 184.187 38.9007C183.282 40.5053 182.039 41.7606 180.461 42.6664C178.908 43.5464 177.148 43.9864 175.181 43.9864ZM162.835 43.6758V14.8701H168.892V27.0213L168.503 33.1939L168.62 39.4054V43.6758H162.835ZM174.133 39.0172C175.142 39.0172 176.035 38.7842 176.811 38.3184C177.614 37.8525 178.248 37.1926 178.714 36.3385C179.205 35.4585 179.451 34.4233 179.451 33.2327C179.451 32.0163 179.205 30.9811 178.714 30.127C178.248 29.2729 177.614 28.613 176.811 28.1471C176.035 27.6812 175.142 27.4483 174.133 27.4483C173.123 27.4483 172.217 27.6812 171.415 28.1471C170.613 28.613 169.979 29.2729 169.513 30.127C169.047 30.9811 168.814 32.0163 168.814 33.2327C168.814 34.4233 169.047 35.4585 169.513 36.3385C169.979 37.1926 170.613 37.8525 171.415 38.3184C172.217 38.7842 173.123 39.0172 174.133 39.0172ZM190.027 43.6758V22.7897H195.812V28.6906L194.997 26.9825C195.618 25.5072 196.614 24.3943 197.986 23.6438C199.357 22.8674 201.027 22.4791 202.994 22.4791V28.0695C202.735 28.0436 202.502 28.0306 202.295 28.0306C202.088 28.0048 201.868 27.9918 201.635 27.9918C199.979 27.9918 198.633 28.4706 197.598 29.4282C196.588 30.3599 196.084 31.8222 196.084 33.8151V43.6758H190.027ZM217.197 43.9864C214.816 43.9864 212.719 43.5205 210.908 42.5888C209.122 41.6571 207.737 40.3889 206.754 38.7842C205.77 37.1537 205.278 35.3032 205.278 33.2327C205.278 31.1364 205.757 29.2859 206.715 27.6812C207.698 26.0507 209.031 24.7826 210.714 23.8767C212.396 22.945 214.298 22.4791 216.42 22.4791C218.465 22.4791 220.302 22.9191 221.933 23.7991C223.589 24.6531 224.896 25.8954 225.854 27.526C226.812 29.1306 227.29 31.0587 227.29 33.3104C227.29 33.5433 227.277 33.8151 227.252 34.1256C227.226 34.4103 227.2 34.6821 227.174 34.9409H210.209V31.4081H223.991L221.661 32.4563C221.661 31.3693 221.441 30.4246 221.001 29.6223C220.561 28.82 219.953 28.1989 219.177 27.7589C218.4 27.293 217.494 27.0601 216.459 27.0601C215.424 27.0601 214.505 27.293 213.703 27.7589C212.926 28.1989 212.318 28.833 211.878 29.6611C211.438 30.4635 211.218 31.4211 211.218 32.534V33.4657C211.218 34.6044 211.464 35.6138 211.956 36.4938C212.473 37.3478 213.185 38.0078 214.091 38.4737C215.023 38.9137 216.11 39.1336 217.352 39.1336C218.465 39.1336 219.435 38.9654 220.264 38.629C221.118 38.2925 221.894 37.7878 222.593 37.1149L225.815 40.6089C224.858 41.6959 223.654 42.537 222.205 43.1323C220.755 43.7017 219.086 43.9864 217.197 43.9864ZM231.711 43.6758V22.7897H237.767V43.6758H231.711ZM234.739 19.8781C233.626 19.8781 232.72 19.5546 232.021 18.9075C231.322 18.2605 230.973 17.4582 230.973 16.5006C230.973 15.543 231.322 14.7407 232.021 14.0936C232.72 13.4466 233.626 13.1231 234.739 13.1231C235.852 13.1231 236.757 13.4337 237.456 14.0548C238.155 14.6501 238.504 15.4265 238.504 16.3841C238.504 17.3935 238.155 18.2346 237.456 18.9075C236.783 19.5546 235.877 19.8781 234.739 19.8781ZM244.203 34.2421L242.999 16.5006H250.22L249.017 34.2421H244.203ZM246.61 43.9864C245.523 43.9864 244.63 43.637 243.931 42.9382C243.232 42.2394 242.883 41.4112 242.883 40.4536C242.883 39.4701 243.232 38.6548 243.931 38.0078C244.63 37.3349 245.523 36.9984 246.61 36.9984C247.723 36.9984 248.615 37.3349 249.288 38.0078C249.987 38.6548 250.337 39.4701 250.337 40.4536C250.337 41.4112 249.987 42.2394 249.288 42.9382C248.615 43.637 247.723 43.9864 246.61 43.9864Z"/>
</mask>
<path d="M73.5738 43.6758V16.5006H79.8629V38.5513H93.4893V43.6758H73.5738ZM107.216 43.9864C104.835 43.9864 102.739 43.5205 100.927 42.5888C99.1412 41.6571 97.7565 40.3889 96.7731 38.7842C95.7896 37.1537 95.2978 35.3032 95.2978 33.2327C95.2978 31.1364 95.7766 29.2859 96.7342 27.6812C97.7177 26.0507 99.0506 24.7826 100.733 23.8767C102.415 22.945 104.317 22.4791 106.44 22.4791C108.484 22.4791 110.322 22.9191 111.952 23.7991C113.609 24.6531 114.916 25.8954 115.873 27.526C116.831 29.1306 117.31 31.0587 117.31 33.3104C117.31 33.5433 117.297 33.8151 117.271 34.1256C117.245 34.4103 117.219 34.6821 117.193 34.9409H100.228V31.4081H114.01L111.681 32.4563C111.681 31.3693 111.461 30.4246 111.021 29.6223C110.581 28.82 109.972 28.1989 109.196 27.7589C108.42 27.293 107.514 27.0601 106.478 27.0601C105.443 27.0601 104.524 27.293 103.722 27.7589C102.946 28.1989 102.338 28.833 101.898 29.6611C101.458 30.4635 101.238 31.4211 101.238 32.534V33.4657C101.238 34.6044 101.483 35.6138 101.975 36.4938C102.493 37.3478 103.205 38.0078 104.11 38.4737C105.042 38.9137 106.129 39.1336 107.371 39.1336C108.484 39.1336 109.455 38.9654 110.283 38.629C111.137 38.2925 111.914 37.7878 112.612 37.1149L115.835 40.6089C114.877 41.6959 113.673 42.537 112.224 43.1323C110.775 43.7017 109.105 43.9864 107.216 43.9864ZM148.478 22.4791C150.134 22.4791 151.597 22.8156 152.865 23.4885C154.159 24.1355 155.168 25.1449 155.893 26.5166C156.644 27.8624 157.019 29.5964 157.019 31.7187V43.6758H150.963V32.6504C150.963 30.9681 150.613 29.7259 149.915 28.9235C149.216 28.1212 148.232 27.7201 146.964 27.7201C146.084 27.7201 145.295 27.9271 144.596 28.3412C143.897 28.7294 143.354 29.3247 142.965 30.127C142.577 30.9293 142.383 31.9516 142.383 33.1939V43.6758H136.327V32.6504C136.327 30.9681 135.978 29.7259 135.279 28.9235C134.606 28.1212 133.635 27.7201 132.367 27.7201C131.487 27.7201 130.698 27.9271 129.999 28.3412C129.3 28.7294 128.757 29.3247 128.368 30.127C127.98 30.9293 127.786 31.9516 127.786 33.1939V43.6758H121.73V22.7897H127.514V28.4965L126.427 26.8272C127.152 25.4037 128.174 24.3296 129.494 23.605C130.84 22.8544 132.367 22.4791 134.075 22.4791C135.99 22.4791 137.66 22.9709 139.083 23.9544C140.533 24.912 141.49 26.3872 141.956 28.38L139.821 27.7977C140.52 26.1672 141.633 24.8731 143.16 23.9155C144.712 22.9579 146.485 22.4791 148.478 22.4791ZM175.181 43.9864C173.343 43.9864 171.764 43.5981 170.445 42.8217C169.125 42.0453 168.115 40.8677 167.416 39.2889C166.718 37.6843 166.368 35.6656 166.368 33.2327C166.368 30.774 166.731 28.7553 167.455 27.1766C168.206 25.5978 169.241 24.4202 170.561 23.6438C171.881 22.8674 173.421 22.4791 175.181 22.4791C177.148 22.4791 178.908 22.9191 180.461 23.7991C182.039 24.679 183.282 25.9213 184.187 27.526C185.119 29.1306 185.585 31.0328 185.585 33.2327C185.585 35.4068 185.119 37.2961 184.187 38.9007C183.282 40.5053 182.039 41.7606 180.461 42.6664C178.908 43.5464 177.148 43.9864 175.181 43.9864ZM162.835 43.6758V14.8701H168.892V27.0213L168.503 33.1939L168.62 39.4054V43.6758H162.835ZM174.133 39.0172C175.142 39.0172 176.035 38.7842 176.811 38.3184C177.614 37.8525 178.248 37.1926 178.714 36.3385C179.205 35.4585 179.451 34.4233 179.451 33.2327C179.451 32.0163 179.205 30.9811 178.714 30.127C178.248 29.2729 177.614 28.613 176.811 28.1471C176.035 27.6812 175.142 27.4483 174.133 27.4483C173.123 27.4483 172.217 27.6812 171.415 28.1471C170.613 28.613 169.979 29.2729 169.513 30.127C169.047 30.9811 168.814 32.0163 168.814 33.2327C168.814 34.4233 169.047 35.4585 169.513 36.3385C169.979 37.1926 170.613 37.8525 171.415 38.3184C172.217 38.7842 173.123 39.0172 174.133 39.0172ZM190.027 43.6758V22.7897H195.812V28.6906L194.997 26.9825C195.618 25.5072 196.614 24.3943 197.986 23.6438C199.357 22.8674 201.027 22.4791 202.994 22.4791V28.0695C202.735 28.0436 202.502 28.0306 202.295 28.0306C202.088 28.0048 201.868 27.9918 201.635 27.9918C199.979 27.9918 198.633 28.4706 197.598 29.4282C196.588 30.3599 196.084 31.8222 196.084 33.8151V43.6758H190.027ZM217.197 43.9864C214.816 43.9864 212.719 43.5205 210.908 42.5888C209.122 41.6571 207.737 40.3889 206.754 38.7842C205.77 37.1537 205.278 35.3032 205.278 33.2327C205.278 31.1364 205.757 29.2859 206.715 27.6812C207.698 26.0507 209.031 24.7826 210.714 23.8767C212.396 22.945 214.298 22.4791 216.42 22.4791C218.465 22.4791 220.302 22.9191 221.933 23.7991C223.589 24.6531 224.896 25.8954 225.854 27.526C226.812 29.1306 227.29 31.0587 227.29 33.3104C227.29 33.5433 227.277 33.8151 227.252 34.1256C227.226 34.4103 227.2 34.6821 227.174 34.9409H210.209V31.4081H223.991L221.661 32.4563C221.661 31.3693 221.441 30.4246 221.001 29.6223C220.561 28.82 219.953 28.1989 219.177 27.7589C218.4 27.293 217.494 27.0601 216.459 27.0601C215.424 27.0601 214.505 27.293 213.703 27.7589C212.926 28.1989 212.318 28.833 211.878 29.6611C211.438 30.4635 211.218 31.4211 211.218 32.534V33.4657C211.218 34.6044 211.464 35.6138 211.956 36.4938C212.473 37.3478 213.185 38.0078 214.091 38.4737C215.023 38.9137 216.11 39.1336 217.352 39.1336C218.465 39.1336 219.435 38.9654 220.264 38.629C221.118 38.2925 221.894 37.7878 222.593 37.1149L225.815 40.6089C224.858 41.6959 223.654 42.537 222.205 43.1323C220.755 43.7017 219.086 43.9864 217.197 43.9864ZM231.711 43.6758V22.7897H237.767V43.6758H231.711ZM234.739 19.8781C233.626 19.8781 232.72 19.5546 232.021 18.9075C231.322 18.2605 230.973 17.4582 230.973 16.5006C230.973 15.543 231.322 14.7407 232.021 14.0936C232.72 13.4466 233.626 13.1231 234.739 13.1231C235.852 13.1231 236.757 13.4337 237.456 14.0548C238.155 14.6501 238.504 15.4265 238.504 16.3841C238.504 17.3935 238.155 18.2346 237.456 18.9075C236.783 19.5546 235.877 19.8781 234.739 19.8781ZM244.203 34.2421L242.999 16.5006H250.22L249.017 34.2421H244.203ZM246.61 43.9864C245.523 43.9864 244.63 43.637 243.931 42.9382C243.232 42.2394 242.883 41.4112 242.883 40.4536C242.883 39.4701 243.232 38.6548 243.931 38.0078C244.63 37.3349 245.523 36.9984 246.61 36.9984C247.723 36.9984 248.615 37.3349 249.288 38.0078C249.987 38.6548 250.337 39.4701 250.337 40.4536C250.337 41.4112 249.987 42.2394 249.288 42.9382C248.615 43.637 247.723 43.9864 246.61 43.9864Z" fill="#14212E"/>
<path d="M73.5738 43.6758H73.4767V43.7728H73.5738V43.6758ZM73.5738 16.5006V16.4035H73.4767V16.5006H73.5738ZM79.8629 16.5006H79.9599V16.4035H79.8629V16.5006ZM79.8629 38.5513H79.7658V38.6484H79.8629V38.5513ZM93.4893 38.5513H93.5863V38.4543H93.4893V38.5513ZM93.4893 43.6758V43.7728H93.5863V43.6758H93.4893ZM73.5738 43.6758H73.6708V16.5006H73.5738H73.4767V43.6758H73.5738ZM73.5738 16.5006V16.5976H79.8629V16.5006V16.4035H73.5738V16.5006ZM79.8629 16.5006H79.7658V38.5513H79.8629H79.9599V16.5006H79.8629ZM79.8629 38.5513V38.6484H93.4893V38.5513V38.4543H79.8629V38.5513ZM93.4893 38.5513H93.3922V43.6758H93.4893H93.5863V38.5513H93.4893ZM93.4893 43.6758V43.5787H73.5738V43.6758V43.7728H93.4893V43.6758ZM100.927 42.5888L100.882 42.6748L100.883 42.6751L100.927 42.5888ZM96.7731 38.7842L96.69 38.8344L96.6903 38.835L96.7731 38.7842ZM96.7342 27.6812L96.6511 27.6311L96.6509 27.6315L96.7342 27.6812ZM100.733 23.8767L100.779 23.9622L100.78 23.9616L100.733 23.8767ZM111.952 23.7991L111.906 23.8845L111.908 23.8853L111.952 23.7991ZM115.873 27.526L115.79 27.5751L115.79 27.5757L115.873 27.526ZM117.271 34.1256L117.368 34.1344L117.368 34.1337L117.271 34.1256ZM117.193 34.9409V35.038H117.281L117.29 34.9506L117.193 34.9409ZM100.228 34.9409H100.131V35.038H100.228V34.9409ZM100.228 31.4081V31.3111H100.131V31.4081H100.228ZM114.01 31.4081L114.05 31.4966L114.01 31.3111V31.4081ZM111.681 32.4563H111.584V32.6064L111.72 32.5448L111.681 32.4563ZM111.021 29.6223L110.936 29.669L110.936 29.669L111.021 29.6223ZM109.196 27.7589L109.146 27.8421L109.148 27.8433L109.196 27.7589ZM103.722 27.7589L103.77 27.8433L103.771 27.8428L103.722 27.7589ZM101.898 29.6611L101.983 29.7078L101.983 29.7067L101.898 29.6611ZM101.975 36.4938L101.89 36.5411L101.892 36.5441L101.975 36.4938ZM104.11 38.4737L104.066 38.56L104.069 38.5614L104.11 38.4737ZM110.283 38.629L110.247 38.5387L110.246 38.539L110.283 38.629ZM112.612 37.1149L112.684 37.0491L112.616 36.9762L112.545 37.045L112.612 37.1149ZM115.835 40.6089L115.907 40.673L115.965 40.6074L115.906 40.5431L115.835 40.6089ZM112.224 43.1323L112.26 43.2226L112.261 43.2221L112.224 43.1323ZM107.216 43.9864V43.8893C104.848 43.8893 102.767 43.426 100.971 42.5025L100.927 42.5888L100.883 42.6751C102.71 43.615 104.822 44.0834 107.216 44.0834V43.9864ZM100.927 42.5888L100.972 42.5027C99.2005 41.5785 97.8295 40.3221 96.8558 38.7335L96.7731 38.7842L96.6903 38.835C97.6836 40.4556 99.0818 41.7356 100.882 42.6748L100.927 42.5888ZM96.7731 38.7842L96.8562 38.7341C95.8826 37.12 95.3949 35.2872 95.3949 33.2327H95.2978H95.2008C95.2008 35.3193 95.6966 37.1874 96.69 38.8344L96.7731 38.7842ZM95.2978 33.2327H95.3949C95.3949 31.1517 95.87 29.3188 96.8176 27.731L96.7342 27.6812L96.6509 27.6315C95.6833 29.2529 95.2008 31.121 95.2008 33.2327H95.2978ZM96.7342 27.6812L96.8173 27.7314C97.7918 26.1158 99.1119 24.8598 100.779 23.9622L100.733 23.8767L100.687 23.7913C98.9893 24.7053 97.6436 25.9857 96.6511 27.6311L96.7342 27.6812ZM100.733 23.8767L100.78 23.9616C102.446 23.0387 104.332 22.5762 106.44 22.5762V22.4791V22.3821C104.303 22.3821 102.384 22.8513 100.686 23.7918L100.733 23.8767ZM106.44 22.4791V22.5762C108.47 22.5762 110.291 23.0129 111.906 23.8845L111.952 23.7991L111.998 23.7137C110.352 22.8253 108.499 22.3821 106.44 22.3821V22.4791ZM111.952 23.7991L111.908 23.8853C113.548 24.7309 114.841 25.9602 115.79 27.5751L115.873 27.526L115.957 27.4768C114.99 25.8307 113.67 24.5754 111.997 23.7128L111.952 23.7991ZM115.873 27.526L115.79 27.5757C116.737 29.1625 117.213 31.0726 117.213 33.3104H117.31H117.407C117.407 31.0448 116.925 29.0987 115.957 27.4762L115.873 27.526ZM117.31 33.3104H117.213C117.213 33.5399 117.2 33.8089 117.174 34.1176L117.271 34.1256L117.368 34.1337C117.394 33.8213 117.407 33.5467 117.407 33.3104H117.31ZM117.271 34.1256L117.174 34.1169C117.148 34.4013 117.123 34.6727 117.097 34.9312L117.193 34.9409L117.29 34.9506C117.316 34.6914 117.342 34.4194 117.368 34.1344L117.271 34.1256ZM117.193 34.9409V34.8438H100.228V34.9409V35.038H117.193V34.9409ZM100.228 34.9409H100.325V31.4081H100.228H100.131V34.9409H100.228ZM100.228 31.4081V31.5052H114.01V31.4081V31.3111H100.228V31.4081ZM114.01 31.4081L113.97 31.3196L111.641 32.3678L111.681 32.4563L111.72 32.5448L114.05 31.4966L114.01 31.4081ZM111.681 32.4563H111.778C111.778 31.3561 111.555 30.3947 111.106 29.5757L111.021 29.6223L110.936 29.669C111.366 30.4545 111.584 31.3826 111.584 32.4563H111.681ZM111.021 29.6223L111.106 29.5757C110.657 28.758 110.036 28.1235 109.244 27.6744L109.196 27.7589L109.148 27.8433C109.908 28.2742 110.504 28.8821 110.936 29.669L111.021 29.6223ZM109.196 27.7589L109.246 27.6757C108.452 27.1995 107.529 26.963 106.478 26.963V27.0601V27.1571C107.499 27.1571 108.387 27.3865 109.146 27.8421L109.196 27.7589ZM106.478 27.0601V26.963C105.428 26.963 104.492 27.1995 103.673 27.675L103.722 27.7589L103.771 27.8428C104.557 27.3865 105.458 27.1571 106.478 27.1571V27.0601ZM103.722 27.7589L103.674 27.6744C102.881 28.124 102.26 28.772 101.812 29.6156L101.898 29.6611L101.983 29.7067C102.415 28.8939 103.01 28.2737 103.77 27.8433L103.722 27.7589ZM101.898 29.6611L101.812 29.6145C101.363 30.4339 101.141 31.4083 101.141 32.534H101.238H101.335C101.335 31.4339 101.552 30.493 101.983 29.7078L101.898 29.6611ZM101.238 32.534H101.141V33.4657H101.238H101.335V32.534H101.238ZM101.238 33.4657H101.141C101.141 34.6188 101.39 35.6449 101.89 36.5411L101.975 36.4938L102.06 36.4464C101.577 35.5827 101.335 34.5901 101.335 33.4657H101.238ZM101.975 36.4938L101.892 36.5441C102.419 37.4138 103.145 38.0861 104.066 38.56L104.11 38.4737L104.155 38.3874C103.265 37.9295 102.566 37.2819 102.058 36.4435L101.975 36.4938ZM104.11 38.4737L104.069 38.5614C105.016 39.0087 106.118 39.2307 107.371 39.2307V39.1336V39.0366C106.141 39.0366 105.068 38.8186 104.152 38.3859L104.11 38.4737ZM107.371 39.1336V39.2307C108.494 39.2307 109.477 39.061 110.32 38.7189L110.283 38.629L110.246 38.539C109.432 38.8698 108.475 39.0366 107.371 39.0366V39.1336ZM110.283 38.629L110.319 38.7193C111.185 38.3779 111.972 37.866 112.68 37.1848L112.612 37.1149L112.545 37.045C111.855 37.7096 111.089 38.2071 110.247 38.5387L110.283 38.629ZM112.612 37.1149L112.541 37.1807L115.763 40.6747L115.835 40.6089L115.906 40.5431L112.684 37.0491L112.612 37.1149ZM115.835 40.6089L115.762 40.5447C114.815 41.6196 113.624 42.4524 112.187 43.0425L112.224 43.1323L112.261 43.2221C113.723 42.6216 114.939 41.7721 115.907 40.673L115.835 40.6089ZM112.224 43.1323L112.189 43.0419C110.753 43.6061 109.096 43.8893 107.216 43.8893V43.9864V44.0834C109.115 44.0834 110.797 43.7973 112.26 43.2226L112.224 43.1323ZM152.865 23.4885L152.819 23.5743L152.822 23.5753L152.865 23.4885ZM155.893 26.5166L155.807 26.5619L155.808 26.5639L155.893 26.5166ZM157.019 43.6758V43.7728H157.116V43.6758H157.019ZM150.963 43.6758H150.866V43.7728H150.963V43.6758ZM149.915 28.9235L149.988 28.8598L149.988 28.8598L149.915 28.9235ZM144.596 28.3412L144.643 28.4261L144.645 28.4247L144.596 28.3412ZM142.965 30.127L143.053 30.1693L143.053 30.1693L142.965 30.127ZM142.383 43.6758V43.7728H142.48V43.6758H142.383ZM136.327 43.6758H136.23V43.7728H136.327V43.6758ZM135.279 28.9235L135.204 28.9859L135.206 28.9873L135.279 28.9235ZM129.999 28.3412L130.046 28.4261L130.048 28.4247L129.999 28.3412ZM128.368 30.127L128.456 30.1693L128.456 30.1693L128.368 30.127ZM127.786 43.6758V43.7728H127.883V43.6758H127.786ZM121.73 43.6758H121.633V43.7728H121.73V43.6758ZM121.73 22.7897V22.6927H121.633V22.7897H121.73ZM127.514 22.7897H127.611V22.6927H127.514V22.7897ZM127.514 28.4965L127.433 28.5495L127.611 28.8234V28.4965H127.514ZM126.427 26.8272L126.341 26.7831L126.315 26.8331L126.346 26.8801L126.427 26.8272ZM129.494 23.605L129.541 23.69L129.542 23.6897L129.494 23.605ZM139.083 23.9544L139.028 24.0342L139.03 24.0353L139.083 23.9544ZM141.956 28.38L141.931 28.4737L142.088 28.5165L142.051 28.3579L141.956 28.38ZM139.821 27.7977L139.732 27.7595L139.688 27.862L139.795 27.8913L139.821 27.7977ZM143.16 23.9155L143.109 23.8329L143.108 23.8333L143.16 23.9155ZM148.478 22.4791V22.5762C150.121 22.5762 151.567 22.9098 152.819 23.5742L152.865 23.4885L152.91 23.4028C151.626 22.7214 150.148 22.3821 148.478 22.3821V22.4791ZM152.865 23.4885L152.822 23.5753C154.096 24.2126 155.091 25.2068 155.807 26.5619L155.893 26.5166L155.979 26.4713C155.245 25.083 154.222 24.0584 152.908 23.4017L152.865 23.4885ZM155.893 26.5166L155.808 26.5639C156.548 27.8908 156.922 29.607 156.922 31.7187H157.019H157.116C157.116 29.5858 156.739 27.834 155.978 26.4693L155.893 26.5166ZM157.019 31.7187H156.922V43.6758H157.019H157.116V31.7187H157.019ZM157.019 43.6758V43.5787H150.963V43.6758V43.7728H157.019V43.6758ZM150.963 43.6758H151.06V32.6504H150.963H150.866V43.6758H150.963ZM150.963 32.6504H151.06C151.06 30.9576 150.709 29.6875 149.988 28.8598L149.915 28.9235L149.841 28.9873C150.518 29.7642 150.866 30.9787 150.866 32.6504H150.963ZM149.915 28.9235L149.988 28.8598C149.267 28.0322 148.254 27.623 146.964 27.623V27.7201V27.8171C148.21 27.8171 149.165 28.2102 149.841 28.9873L149.915 28.9235ZM146.964 27.7201V27.623C146.068 27.623 145.261 27.834 144.546 28.2577L144.596 28.3412L144.645 28.4247C145.328 28.0202 146.1 27.8171 146.964 27.8171V27.7201ZM144.596 28.3412L144.549 28.2564C143.831 28.6554 143.274 29.2666 142.878 30.0847L142.965 30.127L143.053 30.1693C143.433 29.3828 143.964 28.8035 144.643 28.4261L144.596 28.3412ZM142.965 30.127L142.878 30.0847C142.481 30.9044 142.286 31.9424 142.286 33.1939H142.383H142.48C142.48 31.9609 142.673 30.9543 143.053 30.1693L142.965 30.127ZM142.383 33.1939H142.286V43.6758H142.383H142.48V33.1939H142.383ZM142.383 43.6758V43.5787H136.327V43.6758V43.7728H142.383V43.6758ZM136.327 43.6758H136.424V32.6504H136.327H136.23V43.6758H136.327ZM136.327 32.6504H136.424C136.424 30.9576 136.073 29.6875 135.352 28.8598L135.279 28.9235L135.206 28.9873C135.882 29.7642 136.23 30.9787 136.23 32.6504H136.327ZM135.279 28.9235L135.353 28.8612C134.658 28.0322 133.657 27.623 132.367 27.623V27.7201V27.8171C133.613 27.8171 134.554 28.2102 135.204 28.9859L135.279 28.9235ZM132.367 27.7201V27.623C131.471 27.623 130.665 27.834 129.949 28.2577L129.999 28.3412L130.048 28.4247C130.731 28.0202 131.503 27.8171 132.367 27.8171V27.7201ZM129.999 28.3412L129.952 28.2564C129.234 28.6554 128.677 29.2666 128.281 30.0847L128.368 30.127L128.456 30.1693C128.836 29.3828 129.367 28.8035 130.046 28.4261L129.999 28.3412ZM128.368 30.127L128.281 30.0847C127.885 30.9044 127.689 31.9424 127.689 33.1939H127.786H127.883C127.883 31.9609 128.076 30.9543 128.456 30.1693L128.368 30.127ZM127.786 33.1939H127.689V43.6758H127.786H127.883V33.1939H127.786ZM127.786 43.6758V43.5787H121.73V43.6758V43.7728H127.786V43.6758ZM121.73 43.6758H121.827V22.7897H121.73H121.633V43.6758H121.73ZM121.73 22.7897V22.8868H127.514V22.7897V22.6927H121.73V22.7897ZM127.514 22.7897H127.417V28.4965H127.514H127.611V22.7897H127.514ZM127.514 28.4965L127.596 28.4435L126.509 26.7742L126.427 26.8272L126.346 26.8801L127.433 28.5495L127.514 28.4965ZM126.427 26.8272L126.514 26.8712C127.23 25.464 128.239 24.4047 129.541 23.69L129.494 23.605L129.448 23.5199C128.11 24.2545 127.074 25.3434 126.341 26.7831L126.427 26.8272ZM129.494 23.605L129.542 23.6897C130.871 22.9481 132.382 22.5762 134.075 22.5762V22.4791V22.3821C132.352 22.3821 130.809 22.7607 129.447 23.5202L129.494 23.605ZM134.075 22.4791V22.5762C135.973 22.5762 137.623 23.0631 139.028 24.0342L139.083 23.9544L139.138 23.8745C137.697 22.8786 136.008 22.3821 134.075 22.3821V22.4791ZM139.083 23.9544L139.03 24.0353C140.455 24.9769 141.4 26.4288 141.862 28.4021L141.956 28.38L142.051 28.3579C141.58 26.3455 140.61 24.847 139.137 23.8734L139.083 23.9544ZM141.956 28.38L141.982 28.2864L139.846 27.7041L139.821 27.7977L139.795 27.8913L141.931 28.4737L141.956 28.38ZM139.821 27.7977L139.91 27.8359C140.601 26.2239 141.701 24.945 143.211 23.9978L143.16 23.9155L143.108 23.8333C141.565 24.8012 140.438 26.1105 139.732 27.7595L139.821 27.7977ZM143.16 23.9155L143.21 23.9981C144.747 23.0509 146.502 22.5762 148.478 22.5762V22.4791V22.3821C146.469 22.3821 144.678 22.865 143.109 23.8329L143.16 23.9155ZM170.445 42.8217L170.494 42.738L170.494 42.738L170.445 42.8217ZM167.416 39.2889L167.327 39.3277L167.328 39.3282L167.416 39.2889ZM167.455 27.1766L167.368 27.1349L167.367 27.1361L167.455 27.1766ZM170.561 23.6438L170.512 23.5601L170.512 23.5601L170.561 23.6438ZM180.461 23.7991L180.413 23.8835L180.413 23.8838L180.461 23.7991ZM184.187 27.526L184.103 27.5737L184.103 27.5747L184.187 27.526ZM184.187 38.9007L184.103 38.852L184.103 38.853L184.187 38.9007ZM180.461 42.6664L180.508 42.7509L180.509 42.7506L180.461 42.6664ZM162.835 43.6758H162.738V43.7728H162.835V43.6758ZM162.835 14.8701V14.773H162.738V14.8701H162.835ZM168.892 14.8701H168.989V14.773H168.892V14.8701ZM168.892 27.0213L168.989 27.0274V27.0213H168.892ZM168.503 33.1939L168.406 33.1878L168.406 33.1957L168.503 33.1939ZM168.62 39.4054H168.717L168.717 39.4036L168.62 39.4054ZM168.62 43.6758V43.7728H168.717V43.6758H168.62ZM176.811 38.3184L176.763 38.2344L176.761 38.2352L176.811 38.3184ZM178.714 36.3385L178.629 36.2911L178.628 36.292L178.714 36.3385ZM178.714 30.127L178.628 30.1735L178.629 30.1754L178.714 30.127ZM176.811 28.1471L176.761 28.2303L176.763 28.231L176.811 28.1471ZM171.415 28.1471L171.464 28.231L171.464 28.231L171.415 28.1471ZM169.513 30.127L169.598 30.1735L169.598 30.1735L169.513 30.127ZM169.513 36.3385L169.427 36.3839L169.428 36.385L169.513 36.3385ZM171.415 38.3184L171.464 38.2345L171.464 38.2345L171.415 38.3184ZM175.181 43.9864V43.8893C173.357 43.8893 171.796 43.5041 170.494 42.738L170.445 42.8217L170.395 42.9054C171.733 43.6922 173.329 44.0834 175.181 44.0834V43.9864ZM170.445 42.8217L170.494 42.738C169.193 41.9732 168.197 40.8123 167.505 39.2496L167.416 39.2889L167.328 39.3282C168.034 40.9231 169.056 42.1173 170.395 42.9054L170.445 42.8217ZM167.416 39.2889L167.505 39.2502C166.814 37.6616 166.465 35.6571 166.465 33.2327H166.368H166.271C166.271 35.674 166.622 37.707 167.327 39.3277L167.416 39.2889ZM166.368 33.2327H166.465C166.465 30.7826 166.827 28.779 167.543 27.217L167.455 27.1766L167.367 27.1361C166.635 28.7317 166.271 30.7655 166.271 33.2327H166.368ZM167.455 27.1766L167.543 27.2182C168.286 25.6544 169.309 24.4927 170.61 23.7274L170.561 23.6438L170.512 23.5601C169.173 24.3477 168.125 25.5412 167.368 27.1349L167.455 27.1766ZM170.561 23.6438L170.61 23.7274C171.913 22.961 173.436 22.5762 175.181 22.5762V22.4791V22.3821C173.406 22.3821 171.849 22.7737 170.512 23.5601L170.561 23.6438ZM175.181 22.4791V22.5762C177.133 22.5762 178.876 23.0126 180.413 23.8835L180.461 23.7991L180.508 23.7146C178.939 22.8256 177.163 22.3821 175.181 22.3821V22.4791ZM180.461 23.7991L180.413 23.8838C181.976 24.7549 183.206 25.9843 184.103 27.5737L184.187 27.526L184.272 27.4782C183.357 25.8584 182.102 24.6031 180.508 23.7143L180.461 23.7991ZM184.187 27.526L184.103 27.5747C185.025 29.162 185.488 31.0468 185.488 33.2327H185.585H185.682C185.682 31.0189 185.213 29.0992 184.271 27.4772L184.187 27.526ZM185.585 33.2327H185.488C185.488 35.3926 185.025 37.2645 184.103 38.852L184.187 38.9007L184.271 38.9494C185.213 37.3276 185.682 35.4209 185.682 33.2327H185.585ZM184.187 38.9007L184.103 38.853C183.206 40.4426 181.976 41.6852 180.412 42.5822L180.461 42.6664L180.509 42.7506C182.103 41.836 183.358 40.568 184.272 38.9484L184.187 38.9007ZM180.461 42.6664L180.413 42.582C178.876 43.4528 177.133 43.8893 175.181 43.8893V43.9864V44.0834C177.163 44.0834 178.939 43.6399 180.508 42.7509L180.461 42.6664ZM162.835 43.6758H162.933V14.8701H162.835H162.738V43.6758H162.835ZM162.835 14.8701V14.9671H168.892V14.8701V14.773H162.835V14.8701ZM168.892 14.8701H168.795V27.0213H168.892H168.989V14.8701H168.892ZM168.892 27.0213L168.795 27.0152L168.407 33.1878L168.503 33.1939L168.6 33.2L168.989 27.0274L168.892 27.0213ZM168.503 33.1939L168.406 33.1957L168.523 39.4072L168.62 39.4054L168.717 39.4036L168.6 33.1921L168.503 33.1939ZM168.62 39.4054H168.523V43.6758H168.62H168.717V39.4054H168.62ZM168.62 43.6758V43.5787H162.835V43.6758V43.7728H168.62V43.6758ZM174.133 39.0172V39.1142C175.157 39.1142 176.068 38.8775 176.861 38.4016L176.811 38.3184L176.761 38.2352C176.002 38.691 175.126 38.9201 174.133 38.9201V39.0172ZM176.811 38.3184L176.86 38.4023C177.678 37.9271 178.325 37.2538 178.799 36.385L178.714 36.3385L178.628 36.292C178.171 37.1313 177.549 37.778 176.763 38.2345L176.811 38.3184ZM178.714 36.3385L178.798 36.3858C179.299 35.489 179.548 34.4368 179.548 33.2327H179.451H179.354C179.354 34.4097 179.111 35.4281 178.629 36.2911L178.714 36.3385ZM179.451 33.2327H179.548C179.548 32.0033 179.3 30.9505 178.798 30.0786L178.714 30.127L178.629 30.1754C179.111 31.0117 179.354 32.0294 179.354 33.2327H179.451ZM178.714 30.127L178.799 30.0805C178.325 29.2117 177.678 28.5384 176.86 28.0632L176.811 28.1471L176.763 28.231C177.549 28.6875 178.171 29.3342 178.628 30.1735L178.714 30.127ZM176.811 28.1471L176.861 28.0639C176.068 27.588 175.157 27.3513 174.133 27.3513V27.4483V27.5454C175.126 27.5454 176.002 27.7745 176.761 28.2303L176.811 28.1471ZM174.133 27.4483V27.3513C173.108 27.3513 172.185 27.588 171.366 28.0632L171.415 28.1471L171.464 28.231C172.25 27.7745 173.139 27.5454 174.133 27.5454V27.4483ZM171.415 28.1471L171.366 28.0632C170.548 28.5384 169.902 29.2117 169.428 30.0805L169.513 30.127L169.598 30.1735C170.056 29.3342 170.678 28.6875 171.464 28.231L171.415 28.1471ZM169.513 30.127L169.428 30.0805C168.952 30.952 168.717 32.0041 168.717 33.2327H168.814H168.911C168.911 32.0286 169.142 31.0102 169.598 30.1735L169.513 30.127ZM168.814 33.2327H168.717C168.717 34.436 168.952 35.4874 169.427 36.3839L169.513 36.3385L169.599 36.2931C169.141 35.4296 168.911 34.4105 168.911 33.2327H168.814ZM169.513 36.3385L169.428 36.385C169.902 37.2538 170.548 37.9271 171.366 38.4023L171.415 38.3184L171.464 38.2345C170.678 37.778 170.056 37.1313 169.598 36.292L169.513 36.3385ZM171.415 38.3184L171.366 38.4023C172.185 38.8775 173.108 39.1142 174.133 39.1142V39.0172V38.9201C173.139 38.9201 172.25 38.691 171.464 38.2345L171.415 38.3184ZM190.027 43.6758H189.93V43.7728H190.027V43.6758ZM190.027 22.7897V22.6927H189.93V22.7897H190.027ZM195.812 22.7897H195.909V22.6927H195.812V22.7897ZM195.812 28.6906L195.724 28.7324L195.909 28.6906H195.812ZM194.997 26.9825L194.907 26.9448L194.89 26.9849L194.909 27.0243L194.997 26.9825ZM197.986 23.6438L198.032 23.7289L198.034 23.7282L197.986 23.6438ZM202.994 22.4791H203.091V22.3821H202.994V22.4791ZM202.994 28.0695L202.984 28.166L203.091 28.1767V28.0695H202.994ZM202.295 28.0306L202.283 28.1277H202.295V28.0306ZM197.598 29.4282L197.663 29.4995L197.663 29.4995L197.598 29.4282ZM196.084 43.6758V43.7728H196.181V43.6758H196.084ZM190.027 43.6758H190.124V22.7897H190.027H189.93V43.6758H190.027ZM190.027 22.7897V22.8868H195.812V22.7897V22.6927H190.027V22.7897ZM195.812 22.7897H195.715V28.6906H195.812H195.909V22.7897H195.812ZM195.812 28.6906L195.899 28.6488L195.084 26.9406L194.997 26.9825L194.909 27.0243L195.724 28.7324L195.812 28.6906ZM194.997 26.9825L195.086 27.0201C195.699 25.5646 196.68 24.4687 198.032 23.7289L197.986 23.6438L197.939 23.5586C196.548 24.32 195.537 25.4499 194.907 26.9448L194.997 26.9825ZM197.986 23.6438L198.034 23.7282C199.388 22.9619 201.039 22.5762 202.994 22.5762V22.4791V22.3821C201.014 22.3821 199.327 22.7728 197.938 23.5593L197.986 23.6438ZM202.994 22.4791H202.897V28.0695H202.994H203.091V22.4791H202.994ZM202.994 28.0695L203.003 27.9729C202.742 27.9468 202.506 27.9336 202.295 27.9336V28.0306V28.1277C202.498 28.1277 202.728 28.1404 202.984 28.166L202.994 28.0695ZM202.295 28.0306L202.307 27.9343C202.096 27.9079 201.872 27.8948 201.635 27.8948V27.9918V28.0889C201.864 28.0889 202.08 28.1016 202.283 28.1269L202.295 28.0306ZM201.635 27.9918V27.8948C199.959 27.8948 198.588 28.3799 197.532 29.357L197.598 29.4282L197.663 29.4995C198.678 28.5613 199.999 28.0889 201.635 28.0889V27.9918ZM197.598 29.4282L197.532 29.3569C196.495 30.314 195.986 31.8075 195.986 33.8151H196.084H196.181C196.181 31.8369 196.682 30.4059 197.663 29.4995L197.598 29.4282ZM196.084 33.8151H195.986V43.6758H196.084H196.181V33.8151H196.084ZM196.084 43.6758V43.5787H190.027V43.6758V43.7728H196.084V43.6758ZM210.908 42.5888L210.863 42.6748L210.863 42.6751L210.908 42.5888ZM206.754 38.7842L206.671 38.8344L206.671 38.835L206.754 38.7842ZM206.715 27.6812L206.632 27.6311L206.632 27.6315L206.715 27.6812ZM210.714 23.8767L210.76 23.9622L210.761 23.9616L210.714 23.8767ZM221.933 23.7991L221.887 23.8845L221.889 23.8853L221.933 23.7991ZM225.854 27.526L225.77 27.5751L225.771 27.5757L225.854 27.526ZM227.252 34.1256L227.348 34.1344L227.348 34.1337L227.252 34.1256ZM227.174 34.9409V35.038H227.262L227.27 34.9506L227.174 34.9409ZM210.209 34.9409H210.112V35.038H210.209V34.9409ZM210.209 31.4081V31.3111H210.112V31.4081H210.209ZM223.991 31.4081L224.03 31.4966L223.991 31.3111V31.4081ZM221.661 32.4563H221.564V32.6064L221.701 32.5448L221.661 32.4563ZM221.001 29.6223L220.916 29.669L220.916 29.669L221.001 29.6223ZM219.177 27.7589L219.127 27.8421L219.129 27.8433L219.177 27.7589ZM213.703 27.7589L213.751 27.8433L213.752 27.8428L213.703 27.7589ZM211.878 29.6611L211.963 29.7078L211.964 29.7067L211.878 29.6611ZM211.956 36.4938L211.871 36.5411L211.873 36.5441L211.956 36.4938ZM214.091 38.4737L214.047 38.56L214.05 38.5614L214.091 38.4737ZM220.264 38.629L220.228 38.5387L220.227 38.539L220.264 38.629ZM222.593 37.1149L222.664 37.0491L222.597 36.9762L222.526 37.045L222.593 37.1149ZM225.815 40.6089L225.888 40.673L225.946 40.6074L225.887 40.5431L225.815 40.6089ZM222.205 43.1323L222.24 43.2226L222.242 43.2221L222.205 43.1323ZM217.197 43.9864V43.8893C214.829 43.8893 212.748 43.426 210.952 42.5025L210.908 42.5888L210.863 42.6751C212.691 43.615 214.803 44.0834 217.197 44.0834V43.9864ZM210.908 42.5888L210.953 42.5027C209.181 41.5785 207.81 40.3221 206.836 38.7335L206.754 38.7842L206.671 38.835C207.664 40.4556 209.062 41.7356 210.863 42.6748L210.908 42.5888ZM206.754 38.7842L206.837 38.7341C205.863 37.12 205.376 35.2872 205.376 33.2327H205.278H205.181C205.181 35.3193 205.677 37.1874 206.671 38.8344L206.754 38.7842ZM205.278 33.2327H205.376C205.376 31.1517 205.851 29.3188 206.798 27.731L206.715 27.6812L206.632 27.6315C205.664 29.2529 205.181 31.121 205.181 33.2327H205.278ZM206.715 27.6812L206.798 27.7314C207.772 26.1158 209.093 24.8598 210.76 23.9622L210.714 23.8767L210.668 23.7913C208.97 24.7053 207.624 25.9857 206.632 27.6311L206.715 27.6812ZM210.714 23.8767L210.761 23.9616C212.427 23.0387 214.313 22.5762 216.42 22.5762V22.4791V22.3821C214.283 22.3821 212.365 22.8513 210.667 23.7918L210.714 23.8767ZM216.42 22.4791V22.5762C218.451 22.5762 220.272 23.0129 221.887 23.8845L221.933 23.7991L221.979 23.7137C220.333 22.8253 218.479 22.3821 216.42 22.3821V22.4791ZM221.933 23.7991L221.889 23.8853C223.528 24.7309 224.822 25.9602 225.77 27.5751L225.854 27.526L225.938 27.4768C224.971 25.8307 223.65 24.5754 221.977 23.7128L221.933 23.7991ZM225.854 27.526L225.771 27.5757C226.718 29.1625 227.193 31.0726 227.193 33.3104H227.29H227.387C227.387 31.0448 226.906 29.0987 225.937 27.4762L225.854 27.526ZM227.29 33.3104H227.193C227.193 33.5399 227.181 33.8089 227.155 34.1176L227.252 34.1256L227.348 34.1337C227.374 33.8213 227.387 33.5467 227.387 33.3104H227.29ZM227.252 34.1256L227.155 34.1169C227.129 34.4013 227.103 34.6727 227.077 34.9312L227.174 34.9409L227.27 34.9506C227.296 34.6914 227.322 34.4194 227.348 34.1344L227.252 34.1256ZM227.174 34.9409V34.8438H210.209V34.9409V35.038H227.174V34.9409ZM210.209 34.9409H210.306V31.4081H210.209H210.112V34.9409H210.209ZM210.209 31.4081V31.5052H223.991V31.4081V31.3111H210.209V31.4081ZM223.991 31.4081L223.951 31.3196L221.621 32.3678L221.661 32.4563L221.701 32.5448L224.03 31.4966L223.991 31.4081ZM221.661 32.4563H221.758C221.758 31.3561 221.536 30.3947 221.086 29.5757L221.001 29.6223L220.916 29.669C221.347 30.4545 221.564 31.3826 221.564 32.4563H221.661ZM221.001 29.6223L221.086 29.5757C220.638 28.758 220.017 28.1235 219.225 27.6744L219.177 27.7589L219.129 27.8433C219.889 28.2742 220.485 28.8821 220.916 29.669L221.001 29.6223ZM219.177 27.7589L219.227 27.6757C218.433 27.1995 217.509 26.963 216.459 26.963V27.0601V27.1571C217.479 27.1571 218.367 27.3865 219.127 27.8421L219.177 27.7589ZM216.459 27.0601V26.963C215.409 26.963 214.473 27.1995 213.654 27.675L213.703 27.7589L213.752 27.8428C214.537 27.3865 215.439 27.1571 216.459 27.1571V27.0601ZM213.703 27.7589L213.655 27.6744C212.862 28.124 212.241 28.772 211.792 29.6156L211.878 29.6611L211.964 29.7067C212.396 28.8939 212.991 28.2737 213.751 27.8433L213.703 27.7589ZM211.878 29.6611L211.793 29.6145C211.344 30.4339 211.121 31.4083 211.121 32.534H211.218H211.315C211.315 31.4339 211.533 30.493 211.963 29.7078L211.878 29.6611ZM211.218 32.534H211.121V33.4657H211.218H211.315V32.534H211.218ZM211.218 33.4657H211.121C211.121 34.6188 211.37 35.6449 211.871 36.5411L211.956 36.4938L212.041 36.4464C211.558 35.5827 211.315 34.5901 211.315 33.4657H211.218ZM211.956 36.4938L211.873 36.5441C212.4 37.4138 213.125 38.0861 214.047 38.56L214.091 38.4737L214.135 38.3874C213.245 37.9295 212.547 37.2819 212.039 36.4435L211.956 36.4938ZM214.091 38.4737L214.05 38.5614C214.997 39.0087 216.098 39.2307 217.352 39.2307V39.1336V39.0366C216.121 39.0366 215.049 38.8186 214.132 38.3859L214.091 38.4737ZM217.352 39.1336V39.2307C218.474 39.2307 219.458 39.061 220.3 38.7189L220.264 38.629L220.227 38.539C219.413 38.8698 218.455 39.0366 217.352 39.0366V39.1336ZM220.264 38.629L220.299 38.7193C221.166 38.3779 221.953 37.866 222.66 37.1848L222.593 37.1149L222.526 37.045C221.835 37.7096 221.07 38.2071 220.228 38.5387L220.264 38.629ZM222.593 37.1149L222.522 37.1807L225.744 40.6747L225.815 40.6089L225.887 40.5431L222.664 37.0491L222.593 37.1149ZM225.815 40.6089L225.742 40.5447C224.795 41.6196 223.605 42.4524 222.168 43.0425L222.205 43.1323L222.242 43.2221C223.704 42.6216 224.92 41.7721 225.888 40.673L225.815 40.6089ZM222.205 43.1323L222.169 43.0419C220.733 43.6061 219.076 43.8893 217.197 43.8893V43.9864V44.0834C219.096 44.0834 220.777 43.7973 222.24 43.2226L222.205 43.1323ZM231.711 43.6758H231.614V43.7728H231.711V43.6758ZM231.711 22.7897V22.6927H231.614V22.7897H231.711ZM237.767 22.7897H237.864V22.6927H237.767V22.7897ZM237.767 43.6758V43.7728H237.864V43.6758H237.767ZM232.021 18.9075L231.955 18.9788L231.955 18.9788L232.021 18.9075ZM232.021 14.0936L232.087 14.1649L232.087 14.1649L232.021 14.0936ZM237.456 14.0548L237.392 14.1274L237.393 14.1287L237.456 14.0548ZM237.456 18.9075L237.523 18.9775L237.524 18.9774L237.456 18.9075ZM231.711 43.6758H231.808V22.7897H231.711H231.614V43.6758H231.711ZM231.711 22.7897V22.8868H237.767V22.7897V22.6927H231.711V22.7897ZM237.767 22.7897H237.67V43.6758H237.767H237.864V22.7897H237.767ZM237.767 43.6758V43.5787H231.711V43.6758V43.7728H237.767V43.6758ZM234.739 19.8781V19.781C233.646 19.781 232.765 19.464 232.087 18.8363L232.021 18.9075L231.955 18.9788C232.675 19.6452 233.606 19.9751 234.739 19.9751V19.8781ZM232.021 18.9075L232.087 18.8363C231.408 18.2078 231.07 17.4313 231.07 16.5006H230.973H230.876C230.876 17.4851 231.236 18.3132 231.955 18.9788L232.021 18.9075ZM230.973 16.5006H231.07C231.07 15.5699 231.408 14.7934 232.087 14.1649L232.021 14.0936L231.955 14.0224C231.236 14.6879 230.876 15.5161 230.876 16.5006H230.973ZM232.021 14.0936L232.087 14.1649C232.765 13.5372 233.646 13.2202 234.739 13.2202V13.1231V13.026C233.606 13.026 232.675 13.356 231.955 14.0224L232.021 14.0936ZM234.739 13.1231V13.2202C235.833 13.2202 236.714 13.5249 237.392 14.1274L237.456 14.0548L237.521 13.9823C236.801 13.3424 235.871 13.026 234.739 13.026V13.1231ZM237.456 14.0548L237.393 14.1287C238.069 14.7046 238.407 15.4536 238.407 16.3841H238.504H238.601C238.601 15.3995 238.241 14.5955 237.519 13.9809L237.456 14.0548ZM238.504 16.3841H238.407C238.407 17.3683 238.068 18.1838 237.389 18.8376L237.456 18.9075L237.524 18.9774C238.242 18.2854 238.601 17.4187 238.601 16.3841H238.504ZM237.456 18.9075L237.389 18.8376C236.738 19.4636 235.858 19.781 234.739 19.781V19.8781V19.9751C235.897 19.9751 236.829 19.6456 237.523 18.9775L237.456 18.9075ZM244.203 34.2421L244.106 34.2487L244.112 34.3392H244.203V34.2421ZM242.999 16.5006V16.4035H242.895L242.902 16.5072L242.999 16.5006ZM250.22 16.5006L250.317 16.5072L250.324 16.4035H250.22V16.5006ZM249.017 34.2421V34.3392H249.107L249.113 34.2487L249.017 34.2421ZM243.931 42.9382L243.862 43.0068L243.862 43.0068L243.931 42.9382ZM243.931 38.0078L243.997 38.079L243.998 38.0777L243.931 38.0078ZM249.288 38.0078L249.22 38.0765L249.222 38.079L249.288 38.0078ZM249.288 42.9382L249.22 42.8695L249.218 42.8708L249.288 42.9382ZM244.203 34.2421L244.3 34.2355L243.096 16.494L242.999 16.5006L242.902 16.5072L244.106 34.2487L244.203 34.2421ZM242.999 16.5006V16.5976H250.22V16.5006V16.4035H242.999V16.5006ZM250.22 16.5006L250.123 16.494L248.92 34.2355L249.017 34.2421L249.113 34.2487L250.317 16.5072L250.22 16.5006ZM249.017 34.2421V34.1451H244.203V34.2421V34.3392H249.017V34.2421ZM246.61 43.9864V43.8893C245.546 43.8893 244.678 43.5482 244 42.8695L243.931 42.9382L243.862 43.0068C244.581 43.7257 245.5 44.0834 246.61 44.0834V43.9864ZM243.931 42.9382L244 42.8695C243.318 42.1883 242.98 41.3845 242.98 40.4536H242.883H242.786C242.786 41.4378 243.146 42.2905 243.862 43.0068L243.931 42.9382ZM242.883 40.4536H242.98C242.98 39.4961 243.319 38.707 243.997 38.079L243.931 38.0078L243.865 37.9366C243.146 38.6027 242.786 39.4441 242.786 40.4536H242.883ZM243.931 38.0078L243.998 38.0777C244.677 37.4244 245.544 37.0955 246.61 37.0955V36.9984V36.9014C245.501 36.9014 244.583 37.2454 243.864 37.9379L243.931 38.0078ZM246.61 36.9984V37.0955C247.701 37.0955 248.568 37.4248 249.22 38.0764L249.288 38.0078L249.357 37.9392C248.663 37.245 247.744 36.9014 246.61 36.9014V36.9984ZM249.288 38.0078L249.222 38.079C249.901 38.707 250.239 39.4961 250.239 40.4536H250.337H250.434C250.434 39.4441 250.074 38.6027 249.354 37.9366L249.288 38.0078ZM250.337 40.4536H250.239C250.239 41.3845 249.901 42.1883 249.22 42.8695L249.288 42.9382L249.357 43.0068C250.073 42.2905 250.434 41.4378 250.434 40.4536H250.337ZM249.288 42.9382L249.218 42.8708C248.567 43.5478 247.7 43.8893 246.61 43.8893V43.9864V44.0834C247.745 44.0834 248.664 43.7261 249.358 43.0055L249.288 42.9382Z" fill="#14212E" mask="url(#path-4-outside-1_393_864)"/>
</svg>
